<svg width="10" height="12" viewBox="0 0 10 12" fill="none" xmlns="http://www.w3.org/2000/svg">
<path d="M9.08221 1.69812H8.34517C8.32981 1.69812 8.31616 1.7034 8.30188 1.70685V0.93289C8.30188 0.418452 7.87384 0 7.34761 0H0.954267C0.428036 0 0 0.418452 0 0.93289V9.63315C0 10.1476 0.428036 10.566 0.954268 10.566H2.07547V10.9873C2.07547 11.4833 2.48711 11.8868 2.99326 11.8868H9.08221C9.58836 11.8868 10 11.4833 10 10.9873V2.59765C10 2.10164 9.58836 1.69812 9.08221 1.69812ZM0.37735 9.63315V0.93289C0.37735 0.626657 0.63624 0.377368 0.954268 0.377368H7.34761C7.66564 0.377368 7.92453 0.626657 7.92453 0.93289V9.63315C7.92453 9.93938 7.66564 10.1887 7.34761 10.1887H0.954268C0.63624 10.1887 0.37735 9.93938 0.37735 9.63315ZM9.62263 10.9873C9.62263 11.2752 9.38016 11.5094 9.08221 11.5094H2.99326C2.69531 11.5094 2.45282 11.2752 2.45282 10.9873V10.566H7.34761C7.87384 10.566 8.30188 10.1476 8.30188 9.63315V2.06674C8.31616 2.0702 8.32981 2.07547 8.34517 2.07547H9.08221C9.38016 2.07547 9.62263 2.30966 9.62263 2.59765V10.9873Z" fill="#212121"/>
<path d="M6.22634 2.45282H2.0754C1.97111 2.45282 1.88672 2.5372 1.88672 2.64149C1.88672 2.74579 1.97111 2.83017 2.0754 2.83017H6.22634C6.33063 2.83017 6.41503 2.74579 6.41503 2.64149C6.41503 2.5372 6.33063 2.45282 6.22634 2.45282Z" fill="#212121"/>
<path d="M6.22634 3.96228H2.0754C1.97111 3.96228 1.88672 4.04666 1.88672 4.15095C1.88672 4.25523 1.97111 4.33963 2.0754 4.33963H6.22634C6.33063 4.33963 6.41503 4.25523 6.41503 4.15095C6.41503 4.04666 6.33063 3.96228 6.22634 3.96228Z" fill="#212121"/>
<path d="M6.22634 5.47168H2.0754C1.97111 5.47168 1.88672 5.55608 1.88672 5.66036C1.88672 5.76465 1.97111 5.84905 2.0754 5.84905H6.22634C6.33063 5.84905 6.41503 5.76465 6.41503 5.66036C6.41503 5.55608 6.33063 5.47168 6.22634 5.47168Z" fill="#212121"/>
<path d="M4.33956 6.98114H2.0754C1.97111 6.98114 1.88672 7.06554 1.88672 7.16982C1.88672 7.27411 1.97111 7.35851 2.0754 7.35851H4.33956C4.44385 7.35851 4.52822 7.27411 4.52822 7.16982C4.52822 7.06554 4.44385 6.98114 4.33956 6.98114Z" fill="#212121"/>
</svg>
